<svg xmlns="http://www.w3.org/2000/svg" xmlns:xlink="http://www.w3.org/1999/xlink" contentStyleType="text/css" data-diagram-type="ACTIVITY" height="1713px" preserveAspectRatio="none" style="width:983px;height:1713px;background:#FFFFFF;" version="1.1" viewBox="0 0 983 1713" width="983px" zoomAndPan="magnify"><?plantuml 1.2026.6?><defs/><g><g class="title" data-source-line="10"><text fill="#000000" font-family="sans-serif" font-size="14" font-weight="700" lengthAdjust="spacing" textLength="192.5957" x="394.4969" y="34.5332">Activity &#8212; &#272;&#259;ng k&#253; t&#224;i kho&#7843;n</text></g><rect fill="none" height="22.6406" style="stroke:none;stroke-width:1;" width="936.5896" x="20" y="56.0645"/><ellipse cx="121.3125" cy="93.7051" fill="#222222" rx="10" ry="10" style="stroke:#222222;stroke-width:1;"/><rect fill="#FFFFFF" height="35.0938" rx="12.5" ry="12.5" style="stroke:#000000;stroke-width:0.5;" width="115.2324" x="63.6963" y="123.7051"/><text fill="#000000" font-family="sans-serif" font-size="12" lengthAdjust="spacing" textLength="95.2324" x="73.6963" y="146.1621">m&#7903; trang /register</text><rect fill="#FFFFFF" height="50.1875" rx="12.5" ry="12.5" style="stroke:#000000;stroke-width:0.5;" width="138.0664" x="52.2793" y="178.7988"/><text fill="#000000" font-family="sans-serif" font-size="12" lengthAdjust="spacing" textLength="118.0664" x="62.2793" y="201.2559">nh&#7853;p email, m&#7853;t kh&#7849;u,</text><text fill="#000000" font-family="sans-serif" font-size="12" lengthAdjust="spacing" textLength="101.3965" x="62.2793" y="216.3496">x&#225;c nh&#7853;n m&#7853;t kh&#7849;u</text><rect fill="#FFFFFF" height="35.0938" rx="12.5" ry="12.5" style="stroke:#000000;stroke-width:0.5;" width="99.2188" x="71.7031" y="248.9863"/><text fill="#000000" font-family="sans-serif" font-size="12" lengthAdjust="spacing" textLength="79.2188" x="81.7031" y="271.4434">b&#7845;m "&#272;&#259;ng k&#253;"</text><rect fill="#FFFFFF" height="35.0938" rx="12.5" ry="12.5" style="stroke:#000000;stroke-width:0.5;" width="190.625" x="26" y="1334.1465"/><text fill="#000000" font-family="sans-serif" font-size="12" lengthAdjust="spacing" textLength="170.625" x="36" y="1356.6035">m&#7903; email, b&#7845;m li&#234;n k&#7871;t x&#225;c th&#7921;c</text><line style="stroke:#000000;stroke-width:1.5;" x1="20" x2="20" y1="56.0645" y2="1692.709"/><rect fill="#FFFFFF" height="35.0938" rx="12.5" ry="12.5" style="stroke:#000000;stroke-width:0.5;" width="157.3906" x="292.2959" y="304.0801"/><text fill="#000000" font-family="sans-serif" font-size="12" lengthAdjust="spacing" textLength="137.3906" x="302.2959" y="326.5371">g&#7917;i POST /register (_csrf)</text><rect fill="#FFFFFF" height="35.0938" rx="12.5" ry="12.5" style="stroke:#000000;stroke-width:0.5;" width="110.0352" x="315.9736" y="463.1855"/><text fill="#000000" font-family="sans-serif" font-size="12" lengthAdjust="spacing" textLength="90.0352" x="325.9736" y="485.6426">hi&#7875;n th&#7883; l&#7895;i CSRF</text><ellipse cx="370.9912" cy="529.2793" fill="none" rx="11" ry="11" style="stroke:#222222;stroke-width:1;"/><ellipse cx="370.9912" cy="529.2793" fill="#222222" rx="6" ry="6" style="stroke:#222222;stroke-width:1;"/><rect fill="#FFFFFF" height="35.0938" rx="12.5" ry="12.5" style="stroke:#000000;stroke-width:0.5;" width="163.4141" x="289.2842" y="631.1973"/><text fill="#000000" font-family="sans-serif" font-size="12" lengthAdjust="spacing" textLength="143.4141" x="299.2842" y="653.6543">flash l&#7895;i &#273;&#7897; m&#7841;nh m&#7853;t kh&#7849;u</text><rect fill="#FFFFFF" height="35.0938" rx="12.5" ry="12.5" style="stroke:#000000;stroke-width:0.5;" width="125.3809" x="308.3008" y="686.291"/><text fill="#000000" font-family="sans-serif" font-size="12" lengthAdjust="spacing" textLength="105.3809" x="318.3008" y="708.748">hi&#7875;n th&#7883; l&#7895;i tr&#234;n form</text><ellipse cx="370.9912" cy="752.3848" fill="none" rx="11" ry="11" style="stroke:#222222;stroke-width:1;"/><ellipse cx="370.9912" cy="752.3848" fill="#222222" rx="6" ry="6" style="stroke:#222222;stroke-width:1;"/><polygon fill="#FFFFFF" points="308.6274,582.2793,433.355,582.2793,445.355,594.2793,433.355,606.2793,308.6274,606.2793,296.6274,594.2793,308.6274,582.2793" style="stroke:#000000;stroke-width:0.5;stroke-linejoin:miter;stroke-miterlimit:10;"/><text fill="#000000" font-family="sans-serif" font-size="11" lengthAdjust="spacing" textLength="56.2676" x="374.9912" y="617.6982">[Kh&#244;ng &#273;&#7841;t]</text><text fill="#000000" font-family="sans-serif" font-size="11" lengthAdjust="spacing" textLength="124.7275" x="308.6274" y="598.7803">PasswordPolicy.validate?</text><text fill="#000000" font-family="sans-serif" font-size="11" lengthAdjust="spacing" textLength="23.23" x="445.355" y="591.8623">[&#272;&#7841;t]</text><rect fill="#FFFFFF" height="35.0938" rx="12.5" ry="12.5" style="stroke:#000000;stroke-width:0.5;" width="74.0352" x="333.9736" y="964.4902"/><text fill="#000000" font-family="sans-serif" font-size="12" lengthAdjust="spacing" textLength="54.0352" x="343.9736" y="986.9473">hi&#7875;n th&#7883; l&#7895;i</text><ellipse cx="370.9912" cy="1030.584" fill="none" rx="11" ry="11" style="stroke:#222222;stroke-width:1;"/><ellipse cx="370.9912" cy="1030.584" fill="#222222" rx="6" ry="6" style="stroke:#222222;stroke-width:1;"/><rect fill="#FFFFFF" height="35.0938" rx="12.5" ry="12.5" style="stroke:#000000;stroke-width:0.5;" width="167.375" x="287.3037" y="1083.584"/><text fill="#000000" font-family="sans-serif" font-size="12" lengthAdjust="spacing" textLength="147.375" x="297.3037" y="1106.041">PasswordUtil.hash (BCrypt)</text><rect fill="#FFFFFF" height="50.1875" rx="12.5" ry="12.5" style="stroke:#000000;stroke-width:0.5;" width="133.0332" x="226.625" y="1558.5215"/><text fill="#000000" font-family="sans-serif" font-size="12" lengthAdjust="spacing" textLength="92.9941" x="236.625" y="1580.9785">"Li&#234;n k&#7871;t h&#7871;t h&#7841;n,</text><text fill="#000000" font-family="sans-serif" font-size="12" lengthAdjust="spacing" textLength="113.0332" x="236.625" y="1596.0723">b&#7845;m g&#7917;i l&#7841;i x&#225;c th&#7921;c"</text><ellipse cx="293.1416" cy="1639.709" fill="none" rx="11" ry="11" style="stroke:#222222;stroke-width:1;"/><ellipse cx="293.1416" cy="1639.709" fill="#222222" rx="6" ry="6" style="stroke:#222222;stroke-width:1;"/><rect fill="#FFFFFF" height="50.1875" rx="12.5" ry="12.5" style="stroke:#000000;stroke-width:0.5;" width="138.3652" x="379.6582" y="1558.5215"/><text fill="#000000" font-family="sans-serif" font-size="12" lengthAdjust="spacing" textLength="118.3652" x="389.6582" y="1580.9785">"X&#225;c th&#7921;c th&#224;nh c&#244;ng,</text><text fill="#000000" font-family="sans-serif" font-size="12" lengthAdjust="spacing" textLength="84.8496" x="389.6582" y="1596.0723">m&#7901;i &#273;&#259;ng nh&#7853;p"</text><ellipse cx="370.9912" cy="1681.709" fill="none" rx="11" ry="11" style="stroke:#222222;stroke-width:1;"/><ellipse cx="370.9912" cy="1681.709" fill="#222222" rx="6" ry="6" style="stroke:#222222;stroke-width:1;"/><line style="stroke:#000000;stroke-width:1.5;" x1="220.625" x2="220.625" y1="56.0645" y2="1692.709"/><rect fill="#FFFFFF" height="35.0938" rx="12.5" ry="12.5" style="stroke:#000000;stroke-width:0.5;" width="57.3594" x="617.0654" y="408.0918"/><text fill="#000000" font-family="sans-serif" font-size="12" lengthAdjust="spacing" textLength="37.3594" x="627.0654" y="430.5488">tr&#7843; 403</text><polygon fill="#FFFFFF" points="595.6704,359.1738,695.8198,359.1738,707.8198,371.1738,695.8198,383.1738,595.6704,383.1738,583.6704,371.1738,595.6704,359.1738" style="stroke:#000000;stroke-width:0.5;stroke-linejoin:miter;stroke-miterlimit:10;"/><text fill="#000000" font-family="sans-serif" font-size="11" lengthAdjust="spacing" textLength="72.0425" x="649.7451" y="394.5928">[Kh&#244;ng h&#7907;p l&#7879;]</text><text fill="#000000" font-family="sans-serif" font-size="11" lengthAdjust="spacing" textLength="100.1494" x="595.6704" y="375.6748">CSRF token h&#7907;p l&#7879;?</text><text fill="#000000" font-family="sans-serif" font-size="11" lengthAdjust="spacing" textLength="39.0049" x="707.8198" y="368.7568">[H&#7907;p l&#7879;]</text><rect fill="#FFFFFF" height="35.0938" rx="12.5" ry="12.5" style="stroke:#000000;stroke-width:0.5;" width="149.2578" x="571.1162" y="909.3965"/><text fill="#000000" font-family="sans-serif" font-size="12" lengthAdjust="spacing" textLength="129.2578" x="581.1162" y="931.8535">flash l&#7895;i "Email &#273;&#227; d&#249;ng"</text><polygon fill="#FFFFFF" points="604.7771,860.4785,686.7131,860.4785,698.7131,872.4785,686.7131,884.4785,604.7771,884.4785,592.7771,872.4785,604.7771,860.4785" style="stroke:#000000;stroke-width:0.5;stroke-linejoin:miter;stroke-miterlimit:10;"/><text fill="#000000" font-family="sans-serif" font-size="11" lengthAdjust="spacing" textLength="53.1953" x="649.7451" y="895.8975">[&#272;&#227; t&#7891;n t&#7841;i]</text><text fill="#000000" font-family="sans-serif" font-size="11" lengthAdjust="spacing" textLength="81.936" x="604.7771" y="876.9795">Email &#273;&#227; t&#7891;n t&#7841;i?</text><text fill="#000000" font-family="sans-serif" font-size="11" lengthAdjust="spacing" textLength="66.6768" x="698.7131" y="870.0615">[Ch&#432;a t&#7891;n t&#7841;i]</text><rect fill="#FFFFFF" height="50.1875" rx="12.5" ry="12.5" style="stroke:#000000;stroke-width:0.5;" width="235.4434" x="528.0234" y="1193.7715"/><text fill="#000000" font-family="sans-serif" font-size="12" lengthAdjust="spacing" textLength="215.4434" x="538.0234" y="1216.2285">EmailService.createAndSendVerification</text><text fill="#000000" font-family="sans-serif" font-size="12" lengthAdjust="spacing" textLength="60.0469" x="538.0234" y="1231.3223">(g&#7917;i async)</text><rect fill="#FFFFFF" height="50.1875" rx="12.5" ry="12.5" style="stroke:#000000;stroke-width:0.5;" width="171.2715" x="560.1094" y="1263.959"/><text fill="#000000" font-family="sans-serif" font-size="12" lengthAdjust="spacing" textLength="111.0586" x="570.1094" y="1286.416">redirect /login + flash</text><text fill="#000000" font-family="sans-serif" font-size="12" lengthAdjust="spacing" textLength="151.2715" x="570.1094" y="1301.5098">"Ki&#7875;m tra email &#273;&#7875; x&#225;c th&#7921;c"</text><rect fill="#FFFFFF" height="35.0938" rx="12.5" ry="12.5" style="stroke:#000000;stroke-width:0.5;" width="165.7168" x="562.8867" y="1389.2402"/><text fill="#000000" font-family="sans-serif" font-size="12" lengthAdjust="spacing" textLength="145.7168" x="572.8867" y="1411.6973">GET /verify-email?token=...</text><polygon fill="#FFFFFF" points="606.2998,1514.5215,685.1904,1514.5215,697.1904,1526.5215,685.1904,1538.5215,606.2998,1538.5215,594.2998,1526.5215,606.2998,1514.5215" style="stroke:#000000;stroke-width:0.5;stroke-linejoin:miter;stroke-miterlimit:10;"/><text fill="#000000" font-family="sans-serif" font-size="11" lengthAdjust="spacing" textLength="78.8906" x="606.2998" y="1531.0225">Token c&#242;n h&#7841;n?</text><text fill="#000000" font-family="sans-serif" font-size="11" lengthAdjust="spacing" textLength="44.6392" x="549.6606" y="1524.1045">[H&#7871;t h&#7841;n]</text><text fill="#000000" font-family="sans-serif" font-size="11" lengthAdjust="spacing" textLength="47.7007" x="697.1904" y="1524.1045">[C&#242;n h&#7841;n]</text><line style="stroke:#000000;stroke-width:1.5;" x1="522.0234" x2="522.0234" y1="56.0645" y2="1692.709"/><rect fill="#FFFFFF" height="35.0938" rx="12.5" ry="12.5" style="stroke:#000000;stroke-width:0.5;" width="174.6992" x="776.3899" y="805.3848"/><text fill="#000000" font-family="sans-serif" font-size="12" lengthAdjust="spacing" textLength="154.6992" x="786.3899" y="827.8418">UserDAO.findByEmail(email)</text><rect fill="#FFFFFF" height="35.0938" rx="12.5" ry="12.5" style="stroke:#000000;stroke-width:0.5;" width="139.3613" x="794.0588" y="1138.6777"/><text fill="#000000" font-family="sans-serif" font-size="12" lengthAdjust="spacing" textLength="119.3613" x="804.0588" y="1161.1348">UserDAO.create(user)</text><rect fill="#FFFFFF" height="50.1875" rx="12.5" ry="12.5" style="stroke:#000000;stroke-width:0.5;" width="127.3965" x="800.0413" y="1444.334"/><text fill="#000000" font-family="sans-serif" font-size="12" lengthAdjust="spacing" textLength="107.3965" x="810.0413" y="1466.791">ki&#7875;m tra &amp; &#273;&#225;nh d&#7845;u</text><text fill="#000000" font-family="sans-serif" font-size="12" lengthAdjust="spacing" textLength="96.0703" x="810.0413" y="1481.8848">Email &#273;&#227; x&#225;c th&#7921;c</text><line style="stroke:#000000;stroke-width:1.5;" x1="770.3899" x2="770.3899" y1="56.0645" y2="1692.709"/><line style="stroke:#000000;stroke-width:1.5;" x1="955.0891" x2="955.0891" y1="56.0645" y2="1692.709"/><line style="stroke:#181818;stroke-width:1;" x1="121.3125" x2="121.3125" y1="103.7051" y2="123.7051"/><polygon fill="#181818" points="117.3125,113.7051,121.3125,123.7051,125.3125,113.7051,121.3125,117.7051" style="stroke:#181818;stroke-width:1;stroke-linejoin:miter;stroke-miterlimit:10;"/><line style="stroke:#181818;stroke-width:1;" x1="121.3125" x2="121.3125" y1="158.7988" y2="178.7988"/><polygon fill="#181818" points="117.3125,168.7988,121.3125,178.7988,125.3125,168.7988,121.3125,172.7988" style="stroke:#181818;stroke-width:1;stroke-linejoin:miter;stroke-miterlimit:10;"/><line style="stroke:#181818;stroke-width:1;" x1="121.3125" x2="121.3125" y1="228.9863" y2="248.9863"/><polygon fill="#181818" points="117.3125,238.9863,121.3125,248.9863,125.3125,238.9863,121.3125,242.9863" style="stroke:#181818;stroke-width:1;stroke-linejoin:miter;stroke-miterlimit:10;"/><line style="stroke:#181818;stroke-width:1;" x1="370.9912" x2="370.9912" y1="498.2793" y2="518.2793"/><polygon fill="#181818" points="366.9912,508.2793,370.9912,518.2793,374.9912,508.2793,370.9912,512.2793" style="stroke:#181818;stroke-width:1;stroke-linejoin:miter;stroke-miterlimit:10;"/><line style="stroke:#181818;stroke-width:1;" x1="370.9912" x2="370.9912" y1="666.291" y2="686.291"/><polygon fill="#181818" points="366.9912,676.291,370.9912,686.291,374.9912,676.291,370.9912,680.291" style="stroke:#181818;stroke-width:1;stroke-linejoin:miter;stroke-miterlimit:10;"/><line style="stroke:#181818;stroke-width:1;" x1="370.9912" x2="370.9912" y1="721.3848" y2="741.3848"/><polygon fill="#181818" points="366.9912,731.3848,370.9912,741.3848,374.9912,731.3848,370.9912,735.3848" style="stroke:#181818;stroke-width:1;stroke-linejoin:miter;stroke-miterlimit:10;"/><line style="stroke:#181818;stroke-width:1;" x1="370.9912" x2="370.9912" y1="606.2793" y2="631.1973"/><polygon fill="#181818" points="366.9912,621.1973,370.9912,631.1973,374.9912,621.1973,370.9912,625.1973" style="stroke:#181818;stroke-width:1;stroke-linejoin:miter;stroke-miterlimit:10;"/><line style="stroke:#181818;stroke-width:1;" x1="445.355" x2="863.7395" y1="594.2793" y2="594.2793"/><polygon fill="#181818" points="859.7395,701.791,863.7395,711.791,867.7395,701.791,863.7395,705.791" style="stroke:#181818;stroke-width:1;stroke-linejoin:miter;stroke-miterlimit:10;"/><line style="stroke:#181818;stroke-width:1;" x1="863.7395" x2="863.7395" y1="594.2793" y2="805.3848"/><polygon fill="#181818" points="859.7395,795.3848,863.7395,805.3848,867.7395,795.3848,863.7395,799.3848" style="stroke:#181818;stroke-width:1;stroke-linejoin:miter;stroke-miterlimit:10;"/><line style="stroke:#181818;stroke-width:1;" x1="370.9912" x2="370.9912" y1="999.584" y2="1019.584"/><polygon fill="#181818" points="366.9912,1009.584,370.9912,1019.584,374.9912,1009.584,370.9912,1013.584" style="stroke:#181818;stroke-width:1;stroke-linejoin:miter;stroke-miterlimit:10;"/><line style="stroke:#181818;stroke-width:1;" x1="293.1416" x2="293.1416" y1="1608.709" y2="1628.709"/><polygon fill="#181818" points="289.1416,1618.709,293.1416,1628.709,297.1416,1618.709,293.1416,1622.709" style="stroke:#181818;stroke-width:1;stroke-linejoin:miter;stroke-miterlimit:10;"/><line style="stroke:#181818;stroke-width:1;" x1="645.7451" x2="645.7451" y1="383.1738" y2="408.0918"/><polygon fill="#181818" points="641.7451,398.0918,645.7451,408.0918,649.7451,398.0918,645.7451,402.0918" style="stroke:#181818;stroke-width:1;stroke-linejoin:miter;stroke-miterlimit:10;"/><line style="stroke:#181818;stroke-width:1;" x1="707.8198" x2="719.8198" y1="371.1738" y2="371.1738"/><polygon fill="#181818" points="715.8198,469.9355,719.8198,479.9355,723.8198,469.9355,719.8198,473.9355" style="stroke:#181818;stroke-width:1;stroke-linejoin:miter;stroke-miterlimit:10;"/><line style="stroke:#181818;stroke-width:1;" x1="719.8198" x2="719.8198" y1="371.1738" y2="567.2793"/><line style="stroke:#181818;stroke-width:1;" x1="719.8198" x2="370.9912" y1="567.2793" y2="567.2793"/><line style="stroke:#181818;stroke-width:1;" x1="370.9912" x2="370.9912" y1="567.2793" y2="582.2793"/><polygon fill="#181818" points="366.9912,572.2793,370.9912,582.2793,374.9912,572.2793,370.9912,576.2793" style="stroke:#181818;stroke-width:1;stroke-linejoin:miter;stroke-miterlimit:10;"/><line style="stroke:#181818;stroke-width:1;" x1="645.7451" x2="645.7451" y1="884.4785" y2="909.3965"/><polygon fill="#181818" points="641.7451,899.3965,645.7451,909.3965,649.7451,899.3965,645.7451,903.3965" style="stroke:#181818;stroke-width:1;stroke-linejoin:miter;stroke-miterlimit:10;"/><line style="stroke:#181818;stroke-width:1;" x1="698.7131" x2="730.374" y1="872.4785" y2="872.4785"/><polygon fill="#181818" points="726.374,971.2402,730.374,981.2402,734.374,971.2402,730.374,975.2402" style="stroke:#181818;stroke-width:1;stroke-linejoin:miter;stroke-miterlimit:10;"/><line style="stroke:#181818;stroke-width:1;" x1="730.374" x2="730.374" y1="872.4785" y2="1068.584"/><line style="stroke:#181818;stroke-width:1;" x1="730.374" x2="370.9912" y1="1068.584" y2="1068.584"/><line style="stroke:#181818;stroke-width:1;" x1="370.9912" x2="370.9912" y1="1068.584" y2="1083.584"/><polygon fill="#181818" points="366.9912,1073.584,370.9912,1083.584,374.9912,1073.584,370.9912,1077.584" style="stroke:#181818;stroke-width:1;stroke-linejoin:miter;stroke-miterlimit:10;"/><line style="stroke:#181818;stroke-width:1;" x1="645.7451" x2="645.7451" y1="1243.959" y2="1263.959"/><polygon fill="#181818" points="641.7451,1253.959,645.7451,1263.959,649.7451,1253.959,645.7451,1257.959" style="stroke:#181818;stroke-width:1;stroke-linejoin:miter;stroke-miterlimit:10;"/><line style="stroke:#181818;stroke-width:1;" x1="121.3125" x2="121.3125" y1="284.0801" y2="289.0801"/><line style="stroke:#181818;stroke-width:1;" x1="121.3125" x2="370.9912" y1="289.0801" y2="289.0801"/><line style="stroke:#181818;stroke-width:1;" x1="370.9912" x2="370.9912" y1="289.0801" y2="304.0801"/><polygon fill="#181818" points="366.9912,294.0801,370.9912,304.0801,374.9912,294.0801,370.9912,298.0801" style="stroke:#181818;stroke-width:1;stroke-linejoin:miter;stroke-miterlimit:10;"/><line style="stroke:#181818;stroke-width:1;" x1="645.7451" x2="645.7451" y1="443.1855" y2="448.1855"/><line style="stroke:#181818;stroke-width:1;" x1="645.7451" x2="370.9912" y1="448.1855" y2="448.1855"/><line style="stroke:#181818;stroke-width:1;" x1="370.9912" x2="370.9912" y1="448.1855" y2="463.1855"/><polygon fill="#181818" points="366.9912,453.1855,370.9912,463.1855,374.9912,453.1855,370.9912,457.1855" style="stroke:#181818;stroke-width:1;stroke-linejoin:miter;stroke-miterlimit:10;"/><line style="stroke:#181818;stroke-width:1;" x1="370.9912" x2="370.9912" y1="339.1738" y2="344.1738"/><line style="stroke:#181818;stroke-width:1;" x1="370.9912" x2="645.7451" y1="344.1738" y2="344.1738"/><line style="stroke:#181818;stroke-width:1;" x1="645.7451" x2="645.7451" y1="344.1738" y2="359.1738"/><polygon fill="#181818" points="641.7451,349.1738,645.7451,359.1738,649.7451,349.1738,645.7451,353.1738" style="stroke:#181818;stroke-width:1;stroke-linejoin:miter;stroke-miterlimit:10;"/><line style="stroke:#181818;stroke-width:1;" x1="645.7451" x2="645.7451" y1="944.4902" y2="949.4902"/><line style="stroke:#181818;stroke-width:1;" x1="645.7451" x2="370.9912" y1="949.4902" y2="949.4902"/><line style="stroke:#181818;stroke-width:1;" x1="370.9912" x2="370.9912" y1="949.4902" y2="964.4902"/><polygon fill="#181818" points="366.9912,954.4902,370.9912,964.4902,374.9912,954.4902,370.9912,958.4902" style="stroke:#181818;stroke-width:1;stroke-linejoin:miter;stroke-miterlimit:10;"/><line style="stroke:#181818;stroke-width:1;" x1="863.7395" x2="863.7395" y1="840.4785" y2="845.4785"/><line style="stroke:#181818;stroke-width:1;" x1="863.7395" x2="645.7451" y1="845.4785" y2="845.4785"/><line style="stroke:#181818;stroke-width:1;" x1="645.7451" x2="645.7451" y1="845.4785" y2="860.4785"/><polygon fill="#181818" points="641.7451,850.4785,645.7451,860.4785,649.7451,850.4785,645.7451,854.4785" style="stroke:#181818;stroke-width:1;stroke-linejoin:miter;stroke-miterlimit:10;"/><line style="stroke:#181818;stroke-width:1;" x1="370.9912" x2="370.9912" y1="1118.6777" y2="1123.6777"/><line style="stroke:#181818;stroke-width:1;" x1="370.9912" x2="863.7395" y1="1123.6777" y2="1123.6777"/><line style="stroke:#181818;stroke-width:1;" x1="863.7395" x2="863.7395" y1="1123.6777" y2="1138.6777"/><polygon fill="#181818" points="859.7395,1128.6777,863.7395,1138.6777,867.7395,1128.6777,863.7395,1132.6777" style="stroke:#181818;stroke-width:1;stroke-linejoin:miter;stroke-miterlimit:10;"/><line style="stroke:#181818;stroke-width:1;" x1="863.7395" x2="863.7395" y1="1173.7715" y2="1178.7715"/><line style="stroke:#181818;stroke-width:1;" x1="863.7395" x2="645.7451" y1="1178.7715" y2="1178.7715"/><line style="stroke:#181818;stroke-width:1;" x1="645.7451" x2="645.7451" y1="1178.7715" y2="1193.7715"/><polygon fill="#181818" points="641.7451,1183.7715,645.7451,1193.7715,649.7451,1183.7715,645.7451,1187.7715" style="stroke:#181818;stroke-width:1;stroke-linejoin:miter;stroke-miterlimit:10;"/><line style="stroke:#181818;stroke-width:1;" x1="645.7451" x2="645.7451" y1="1314.1465" y2="1319.1465"/><line style="stroke:#181818;stroke-width:1;" x1="645.7451" x2="121.3125" y1="1319.1465" y2="1319.1465"/><line style="stroke:#181818;stroke-width:1;" x1="121.3125" x2="121.3125" y1="1319.1465" y2="1334.1465"/><polygon fill="#181818" points="117.3125,1324.1465,121.3125,1334.1465,125.3125,1324.1465,121.3125,1328.1465" style="stroke:#181818;stroke-width:1;stroke-linejoin:miter;stroke-miterlimit:10;"/><line style="stroke:#181818;stroke-width:1;" x1="121.3125" x2="121.3125" y1="1369.2402" y2="1374.2402"/><line style="stroke:#181818;stroke-width:1;" x1="121.3125" x2="645.7451" y1="1374.2402" y2="1374.2402"/><line style="stroke:#181818;stroke-width:1;" x1="645.7451" x2="645.7451" y1="1374.2402" y2="1389.2402"/><polygon fill="#181818" points="641.7451,1379.2402,645.7451,1389.2402,649.7451,1379.2402,645.7451,1383.2402" style="stroke:#181818;stroke-width:1;stroke-linejoin:miter;stroke-miterlimit:10;"/><line style="stroke:#181818;stroke-width:1;" x1="645.7451" x2="645.7451" y1="1424.334" y2="1429.334"/><line style="stroke:#181818;stroke-width:1;" x1="645.7451" x2="863.7395" y1="1429.334" y2="1429.334"/><line style="stroke:#181818;stroke-width:1;" x1="863.7395" x2="863.7395" y1="1429.334" y2="1444.334"/><polygon fill="#181818" points="859.7395,1434.334,863.7395,1444.334,867.7395,1434.334,863.7395,1438.334" style="stroke:#181818;stroke-width:1;stroke-linejoin:miter;stroke-miterlimit:10;"/><line style="stroke:#181818;stroke-width:1;" x1="594.2998" x2="293.1416" y1="1526.5215" y2="1526.5215"/><line style="stroke:#181818;stroke-width:1;" x1="293.1416" x2="293.1416" y1="1526.5215" y2="1558.5215"/><polygon fill="#181818" points="289.1416,1548.5215,293.1416,1558.5215,297.1416,1548.5215,293.1416,1552.5215" style="stroke:#181818;stroke-width:1;stroke-linejoin:miter;stroke-miterlimit:10;"/><line style="stroke:#181818;stroke-width:1;" x1="697.1904" x2="709.1904" y1="1526.5215" y2="1526.5215"/><line style="stroke:#181818;stroke-width:1;" x1="709.1904" x2="709.1904" y1="1526.5215" y2="1544.5215"/><line style="stroke:#181818;stroke-width:1;" x1="709.1904" x2="448.8408" y1="1544.5215" y2="1544.5215"/><line style="stroke:#181818;stroke-width:1;" x1="448.8408" x2="448.8408" y1="1544.5215" y2="1558.5215"/><polygon fill="#181818" points="444.8408,1548.5215,448.8408,1558.5215,452.8408,1548.5215,448.8408,1552.5215" style="stroke:#181818;stroke-width:1;stroke-linejoin:miter;stroke-miterlimit:10;"/><line style="stroke:#181818;stroke-width:1;" x1="448.8408" x2="448.8408" y1="1608.709" y2="1655.709"/><line style="stroke:#181818;stroke-width:1;" x1="448.8408" x2="370.9912" y1="1655.709" y2="1655.709"/><line style="stroke:#181818;stroke-width:1;" x1="370.9912" x2="370.9912" y1="1655.709" y2="1670.709"/><polygon fill="#181818" points="366.9912,1660.709,370.9912,1670.709,374.9912,1660.709,370.9912,1664.709" style="stroke:#181818;stroke-width:1;stroke-linejoin:miter;stroke-miterlimit:10;"/><line style="stroke:#181818;stroke-width:1;" x1="863.7395" x2="863.7395" y1="1494.5215" y2="1499.5215"/><line style="stroke:#181818;stroke-width:1;" x1="863.7395" x2="645.7451" y1="1499.5215" y2="1499.5215"/><line style="stroke:#181818;stroke-width:1;" x1="645.7451" x2="645.7451" y1="1499.5215" y2="1514.5215"/><polygon fill="#181818" points="641.7451,1504.5215,645.7451,1514.5215,649.7451,1504.5215,645.7451,1508.5215" style="stroke:#181818;stroke-width:1;stroke-linejoin:miter;stroke-miterlimit:10;"/><text fill="#000000" font-family="sans-serif" font-size="18" lengthAdjust="spacing" textLength="95.9063" x="72.3594" y="74.75">Ng&#432;&#7901;i d&#249;ng</text><text fill="#000000" font-family="sans-serif" font-size="18" lengthAdjust="spacing" textLength="127.0547" x="307.7969" y="74.75">Giao di&#7879;n (JSP)</text><text fill="#000000" font-family="sans-serif" font-size="18" lengthAdjust="spacing" textLength="183.0938" x="554.6598" y="74.75">H&#7879; th&#7889;ng (AuthServlet)</text><text fill="#000000" font-family="sans-serif" font-size="18" lengthAdjust="spacing" textLength="77.0537" x="824.2126" y="74.75">Database</text><?plantuml-src bLHDQnD16BxlhtZ9GJPOKqLFALBIz0ihRJ2j24PakZl93jcT2REJn604eGSFNbeKn8FOKZme5AfuCK4yREZ_M7-9xyocxYQjXfwM-NZcUTxtUPzLJFaKIevY7QPwyFlbMnZjZ_Pu0vhHJr3H8OEc9-B1CRV29kCj8aa0WU32yQG8A2ZPffcJq2Ekw3A4ruaVPazSMYTjNwqAhZO90gk4XrKgMJrpfoIbw6vxp6bo6ePmAtD4pXK-jm2MX7IfB0jVIDZrYTFKU_XfID7cRhBVzPYYkB_C2CfrBq9UM5P_it5s6Wy_C72Z7xpHjq95fBAAGJpyY9KHB6DUqWOB5PKBLf5xyU2a1JGWp9-301SAcnCFFhVdQlnPTEI0kS4dZX2t6my-1P1B-vfRGEurHWIuB1w-uc3VgrRoVQlOY8Sd32fRrUsK6EodJYZhUOrPnzkWl7XuW0_PfRRoi8KTdoe4iphOvUg3LL2YIJdWfUCM-0XOp2C4T-p76rxq7O7fqPCyTgYe9FeBTsxUNi3LPRhmZeSRUznmlzRGTmmqcKQ4IhGiYcuZmthsQSfTj5Vhgf0mxA835U4pfrVe49-vHD4BoaO7yU189QhgFWczCHNk3z_hjXvnRwgxLr6iPFI5Grt8O5htQ7zCd6Ys-ij4aLqIKZHb9wHokRHLg3CSezwATjysCu2Mp7J4N4VzqJ6eUFW6zI0HImiVxK-UNAmzbtd2Z6dkIaLFLrhspax956DITF7SfHt5_8Ad5TXBPTbhALte9Grn94KJxJOkPxMYQ8hGQ-RGCR34tIeoFzG_0UOGnGIlSJk900bxtC57YvAwJ597mRml6ep3TJ2zgV7SXYurq35D4cc6P0zC3hMAhuw9sNJ4at2FCvmaqsTwB9hnu9VAmcS5hhYsWZ7jQFcz6-R1HHEzkuL2OR9XpLJgDMsadc8NgTirdZ5tWdhcO6sRb3lHDnrrp4KwKkkc4BDffkaVevAxdodRIp7uBqlQaZZXwncPwkhKHFtLy5-wH-aJ-8aEiGUE3Zto1SQWqO7vFoP_MMH9fb8p_G40?></g></svg>