<svg xmlns="http://www.w3.org/2000/svg" xmlns:xlink="http://www.w3.org/1999/xlink" contentStyleType="text/css" data-diagram-type="ACTIVITY" height="1780px" preserveAspectRatio="none" style="width:1542px;height:1780px;background:#FFFFFF;" version="1.1" viewBox="0 0 1542 1780" width="1542px" zoomAndPan="magnify"><?plantuml 1.2026.6?><defs/><g><g class="title" data-source-line="5"><text fill="#000000" font-family="sans-serif" font-size="14" font-weight="700" lengthAdjust="spacing" textLength="589.1348" x="475.4896" y="34.5332">Activity &#8212; Qu&#7843;n l&#253; Phim/R&#7841;p/Ph&#242;ng chi&#7871;u/Su&#7845;t chi&#7871;u (Manager, gi&#7899;i h&#7841;n theo CinemaId)</text></g><rect fill="none" height="22.6406" style="stroke:none;stroke-width:1;" width="1495.114" x="20" y="56.0645"/><ellipse cx="160.792" cy="93.7051" fill="#222222" rx="10" ry="10" style="stroke:#222222;stroke-width:1;"/><rect fill="#FFFFFF" height="35.0938" rx="12.5" ry="12.5" style="stroke:#000000;stroke-width:0.5;" width="202.1094" x="59.7373" y="123.7051"/><text fill="#000000" font-family="sans-serif" font-size="12" lengthAdjust="spacing" textLength="182.1094" x="69.7373" y="146.1621">&#273;&#259;ng nh&#7853;p, v&#224;o /admin/showtimes</text><rect fill="#FFFFFF" height="35.0938" rx="12.5" ry="12.5" style="stroke:#000000;stroke-width:0.5;" width="189.3008" x="66.1416" y="178.7988"/><text fill="#000000" font-family="sans-serif" font-size="12" lengthAdjust="spacing" textLength="169.3008" x="76.1416" y="201.2559">ch&#7885;n "T&#7841;o su&#7845;t chi&#7871;u h&#224;ng lo&#7841;t"</text><rect fill="#FFFFFF" height="50.1875" rx="12.5" ry="12.5" style="stroke:#000000;stroke-width:0.5;" width="226.6777" x="47.4531" y="233.8926"/><text fill="#000000" font-family="sans-serif" font-size="12" lengthAdjust="spacing" textLength="206.6777" x="57.4531" y="256.3496">ch&#7885;n phim, ph&#242;ng chi&#7871;u, khung gi&#7901; l&#7863;p</text><text fill="#000000" font-family="sans-serif" font-size="12" lengthAdjust="spacing" textLength="80.0449" x="57.4531" y="271.4434">(t&#7889;i &#273;a 31 su&#7845;t)</text><rect fill="#FFFFFF" height="35.0938" rx="12.5" ry="12.5" style="stroke:#000000;stroke-width:0.5;" width="76.5781" x="122.5029" y="304.0801"/><text fill="#000000" font-family="sans-serif" font-size="12" lengthAdjust="spacing" textLength="56.5781" x="132.5029" y="326.5371">b&#7845;m "L&#432;u"</text><rect fill="#FFFFFF" height="35.0938" rx="12.5" ry="12.5" style="stroke:#000000;stroke-width:0.5;" width="158.0703" x="81.7568" y="1247.2568"/><text fill="#000000" font-family="sans-serif" font-size="12" lengthAdjust="spacing" textLength="138.0703" x="91.7568" y="1269.7139">xem t&#243;m t&#7855;t k&#7871;t qu&#7843; batch</text><rect fill="#FFFFFF" height="35.0938" rx="12.5" ry="12.5" style="stroke:#000000;stroke-width:0.5;" width="179.9492" x="70.8174" y="1351.2686"/><text fill="#000000" font-family="sans-serif" font-size="12" lengthAdjust="spacing" textLength="159.9492" x="80.8174" y="1373.7256">b&#7845;m "Y&#234;u c&#7847;u xo&#225; su&#7845;t chi&#7871;u"</text><rect fill="#FFFFFF" height="35.0938" rx="12.5" ry="12.5" style="stroke:#000000;stroke-width:0.5;" width="124.748" x="98.418" y="1476.5498"/><text fill="#000000" font-family="sans-serif" font-size="12" lengthAdjust="spacing" textLength="104.748" x="108.418" y="1499.0068">x&#225;c nh&#7853;n xo&#225; 2 pha</text><polygon fill="#FFFFFF" points="85.3281,1302.3506,236.2559,1302.3506,248.2559,1314.3506,236.2559,1326.3506,85.3281,1326.3506,73.3281,1314.3506,85.3281,1302.3506" style="stroke:#000000;stroke-width:0.5;stroke-linejoin:miter;stroke-miterlimit:10;"/><text fill="#000000" font-family="sans-serif" font-size="11" lengthAdjust="spacing" textLength="20.1738" x="164.792" y="1337.7695">[C&#243;]</text><text fill="#000000" font-family="sans-serif" font-size="11" lengthAdjust="spacing" textLength="150.9277" x="85.3281" y="1318.8516">C&#7847;n xo&#225; 1 su&#7845;t &#273;&#227; c&#243; &#273;&#417;n &#273;&#7863;t?</text><text fill="#000000" font-family="sans-serif" font-size="11" lengthAdjust="spacing" textLength="37.9199" x="35.4082" y="1311.9336">[Kh&#244;ng]</text><polygon fill="#FFFFFF" points="160.792,1693.5264,172.792,1705.5264,160.792,1717.5264,148.792,1705.5264,160.792,1693.5264" style="stroke:#000000;stroke-width:0.5;stroke-linejoin:miter;stroke-miterlimit:10;"/><line style="stroke:#000000;stroke-width:1.5;" x1="20" x2="20" y1="56.0645" y2="1759.5264"/><rect fill="#FFFFFF" height="35.0938" rx="12.5" ry="12.5" style="stroke:#000000;stroke-width:0.5;" width="172.748" x="323.8018" y="359.1738"/><text fill="#000000" font-family="sans-serif" font-size="12" lengthAdjust="spacing" textLength="152.748" x="333.8018" y="381.6309">AuthFilter: role &gt;= manager?</text><rect fill="#FFFFFF" height="35.0938" rx="12.5" ry="12.5" style="stroke:#000000;stroke-width:0.5;" width="40.0215" x="390.165" y="463.1855"/><text fill="#000000" font-family="sans-serif" font-size="12" lengthAdjust="spacing" textLength="20.0215" x="400.165" y="485.6426">403</text><ellipse cx="410.1758" cy="537.2324" fill="none" rx="11" ry="11" style="stroke:#222222;stroke-width:1;"/><ellipse cx="410.1758" cy="537.2324" fill="#222222" rx="6" ry="6" style="stroke:#222222;stroke-width:1;"/><polygon fill="#FFFFFF" points="380.8845,414.2676,439.467,414.2676,451.467,426.2676,439.467,438.2676,380.8845,438.2676,368.8845,426.2676,380.8845,414.2676" style="stroke:#000000;stroke-width:0.5;stroke-linejoin:miter;stroke-miterlimit:10;"/><text fill="#000000" font-family="sans-serif" font-size="11" lengthAdjust="spacing" textLength="86.2383" x="414.1758" y="449.6865">[Kh&#244;ng &#273;&#7911; quy&#7873;n]</text><text fill="#000000" font-family="sans-serif" font-size="11" lengthAdjust="spacing" textLength="58.5825" x="380.8845" y="430.7686">role h&#7907;p l&#7879;?</text><text fill="#000000" font-family="sans-serif" font-size="11" lengthAdjust="spacing" textLength="53.2007" x="451.467" y="423.8506">[&#272;&#7911; quy&#7873;n]</text><rect fill="#FFFFFF" height="35.0938" rx="12.5" ry="12.5" style="stroke:#000000;stroke-width:0.5;" width="252.0898" x="284.1309" y="590.2324"/><text fill="#000000" font-family="sans-serif" font-size="12" lengthAdjust="spacing" textLength="232.0898" x="294.1309" y="612.6895">AdminService.saveShowtimes(batch, actor)</text><rect fill="#FFFFFF" height="50.1875" rx="12.5" ry="12.5" style="stroke:#000000;stroke-width:0.5;" width="182.7441" x="318.8037" y="645.3262"/><text fill="#000000" font-family="sans-serif" font-size="12" lengthAdjust="spacing" textLength="162.7441" x="328.8037" y="667.7832">ScopeUtil.assertCinemaScope</text><text fill="#000000" font-family="sans-serif" font-size="12" lengthAdjust="spacing" textLength="123.3691" x="328.8037" y="682.877">(actor, room.CinemaId)</text><rect fill="#FFFFFF" height="35.0938" rx="12.5" ry="12.5" style="stroke:#000000;stroke-width:0.5;" width="118.0449" x="351.1533" y="768.1035"/><text fill="#000000" font-family="sans-serif" font-size="12" lengthAdjust="spacing" textLength="98.0449" x="361.1533" y="790.5605">403 &#8212; ch&#7863;n IDOR</text><polygon fill="#FFFFFF" points="343.217,715.5137,477.1345,715.5137,489.1345,729.3496,477.1345,743.1855,343.217,743.1855,331.217,729.3496,343.217,715.5137" style="stroke:#000000;stroke-width:0.5;stroke-linejoin:miter;stroke-miterlimit:10;"/><text fill="#000000" font-family="sans-serif" font-size="11" lengthAdjust="spacing" textLength="73.9761" x="414.1758" y="754.6045">[Kh&#225;c c&#7909;m r&#7841;p]</text><text fill="#000000" font-family="sans-serif" font-size="11" lengthAdjust="spacing" textLength="133.9175" x="343.217" y="726.9326">Ph&#242;ng chi&#7871;u thu&#7897;c c&#7909;m r&#7841;p</text><text fill="#000000" font-family="sans-serif" font-size="11" lengthAdjust="spacing" textLength="70.3237" x="343.217" y="740.7686">c&#7911;a Manager?</text><text fill="#000000" font-family="sans-serif" font-size="11" lengthAdjust="spacing" textLength="75.2007" x="489.1345" y="726.9326">[&#272;&#250;ng c&#7909;m r&#7841;p]</text><line style="stroke:#000000;stroke-width:1.5;" x1="278.1309" x2="278.1309" y1="56.0645" y2="1759.5264"/><rect fill="#FFFFFF" height="35.0938" rx="12.5" ry="12.5" style="stroke:#000000;stroke-width:0.5;" width="230.6738" x="639.1853" y="823.1973"/><text fill="#000000" font-family="sans-serif" font-size="12" lengthAdjust="spacing" textLength="210.6738" x="649.1853" y="845.6543">"Kh&#244;ng c&#243; quy&#7873;n tr&#234;n ph&#242;ng chi&#7871;u n&#224;y"</text><ellipse cx="754.5222" cy="889.291" fill="none" rx="11" ry="11" style="stroke:#222222;stroke-width:1;"/><ellipse cx="754.5222" cy="889.291" fill="#222222" rx="6" ry="6" style="stroke:#222222;stroke-width:1;"/><polygon fill="#FFFFFF" points="694.1162,997.3848,814.9282,997.3848,826.9282,1011.2207,814.9282,1025.0566,694.1162,1025.0566,682.1162,1011.2207,694.1162,997.3848" style="stroke:#000000;stroke-width:0.5;stroke-linejoin:miter;stroke-miterlimit:10;"/><text fill="#000000" font-family="sans-serif" font-size="11" lengthAdjust="spacing" textLength="120.812" x="694.1162" y="1008.8037">Tr&#249;ng gi&#7901;/buffer v&#7899;i su&#7845;t</text><text fill="#000000" font-family="sans-serif" font-size="11" lengthAdjust="spacing" textLength="89.9067" x="694.1162" y="1022.6396">kh&#225;c c&#249;ng ph&#242;ng?</text><text fill="#000000" font-family="sans-serif" font-size="11" lengthAdjust="spacing" textLength="54.4092" x="627.707" y="1008.8037">[Tr&#249;ng l&#7883;ch]</text><text fill="#000000" font-family="sans-serif" font-size="11" lengthAdjust="spacing" textLength="66.0483" x="826.9282" y="1008.8037">[Kh&#244;ng tr&#249;ng]</text><rect fill="#FFFFFF" height="35.0938" rx="12.5" ry="12.5" style="stroke:#000000;stroke-width:0.5;" width="176.1172" x="575.3352" y="1035.0566"/><text fill="#000000" font-family="sans-serif" font-size="12" lengthAdjust="spacing" textLength="156.1172" x="585.3352" y="1057.5137">b&#7887; qua, ghi v&#224;o danh s&#225;ch l&#7895;i</text><rect fill="#FFFFFF" height="50.1875" rx="12.5" ry="12.5" style="stroke:#000000;stroke-width:0.5;" width="148.3965" x="771.4524" y="1035.0566"/><text fill="#000000" font-family="sans-serif" font-size="12" lengthAdjust="spacing" textLength="106.0254" x="781.4524" y="1057.5137">INSERT Showtimes</text><text fill="#000000" font-family="sans-serif" font-size="12" lengthAdjust="spacing" textLength="128.3965" x="781.4524" y="1072.6074">(SaleStatus=ON_SALE)</text><polygon fill="#FFFFFF" points="754.5222,1091.2441,766.5222,1103.2441,754.5222,1115.2441,742.5222,1103.2441,754.5222,1091.2441" style="stroke:#000000;stroke-width:0.5;stroke-linejoin:miter;stroke-miterlimit:10;"/><rect fill="#FFFFFF" height="35.0938" rx="12.5" ry="12.5" style="stroke:#000000;stroke-width:0.5;" width="148.5957" x="680.2244" y="942.291"/><text fill="#000000" font-family="sans-serif" font-size="12" lengthAdjust="spacing" textLength="128.5957" x="690.2244" y="964.748">v&#7899;i m&#7895;i su&#7845;t trong batch</text><polygon fill="#FFFFFF" points="703.1343,1135.2441,805.9102,1135.2441,817.9102,1147.2441,805.9102,1159.2441,703.1343,1159.2441,691.1343,1147.2441,703.1343,1135.2441" style="stroke:#000000;stroke-width:0.5;stroke-linejoin:miter;stroke-miterlimit:10;"/><text fill="#000000" font-family="sans-serif" font-size="11" lengthAdjust="spacing" textLength="23.23" x="758.5222" y="1170.6631">[H&#7871;t]</text><text fill="#000000" font-family="sans-serif" font-size="11" lengthAdjust="spacing" textLength="102.7759" x="703.1343" y="1151.7451">c&#242;n su&#7845;t ch&#432;a x&#7917; l&#253;?</text><text fill="#000000" font-family="sans-serif" font-size="11" lengthAdjust="spacing" textLength="26.2915" x="817.9102" y="1144.8271">[C&#242;n]</text><rect fill="#FFFFFF" height="35.0938" rx="12.5" ry="12.5" style="stroke:#000000;stroke-width:0.5;" width="206.8027" x="651.1208" y="1192.1631"/><text fill="#000000" font-family="sans-serif" font-size="12" lengthAdjust="spacing" textLength="186.8027" x="661.1208" y="1214.6201">tr&#7843; k&#7871;t qu&#7843; {&#273;&#227; t&#7841;o: X, b&#7883; b&#7887; qua: Y}</text><line style="stroke:#000000;stroke-width:1.5;" x1="569.3352" x2="569.3352" y1="56.0645" y2="1759.5264"/><rect fill="#FFFFFF" height="50.1875" rx="12.5" ry="12.5" style="stroke:#000000;stroke-width:0.5;" width="223.584" x="958.8489" y="1406.3623"/><text fill="#000000" font-family="sans-serif" font-size="12" lengthAdjust="spacing" textLength="155.3965" x="968.8489" y="1428.8193">previewShowtimeDeletion(id)</text><text fill="#000000" font-family="sans-serif" font-size="12" lengthAdjust="spacing" textLength="203.584" x="968.8489" y="1443.9131">&#8594; hi&#7875;n th&#7883; s&#7889; &#273;&#417;n/kh&#225;ch b&#7883; &#7843;nh h&#432;&#7903;ng</text><rect fill="#FFFFFF" height="65.2813" rx="12.5" ry="12.5" style="stroke:#000000;stroke-width:0.5;" width="223.4492" x="958.9163" y="1533.624"/><text fill="#000000" font-family="sans-serif" font-size="12" lengthAdjust="spacing" textLength="136.7402" x="968.9163" y="1556.0811">requestShowtimeDeletion</text><text fill="#000000" font-family="sans-serif" font-size="12" lengthAdjust="spacing" textLength="147.0586" x="968.9163" y="1571.1748">(SaleStatus=SUSPENDED,</text><text fill="#000000" font-family="sans-serif" font-size="12" lengthAdjust="spacing" textLength="203.4492" x="968.9163" y="1586.2686">DeleteRequestedAt, DeleteNotBefore)</text><path d="M1187.0139,1614.4717 L1187.0139,1639.999 L1167.0139,1643.999 L1187.0139,1647.999 L1187.0139,1673.5264 A0,0 0 0 0 1187.0139,1673.5264 L1508.6135,1673.5264 A0,0 0 0 0 1508.6135,1673.5264 L1508.6135,1624.4717 L1498.6135,1614.4717 L1187.0139,1614.4717 A0,0 0 0 0 1187.0139,1614.4717" fill="#FAFAFA" style="stroke:#181818;stroke-width:0.5;"/><path d="M1498.6135,1614.4717 L1498.6135,1624.4717 L1508.6135,1624.4717 L1498.6135,1614.4717" fill="#FAFAFA" style="stroke:#181818;stroke-width:0.5;"/><text fill="#000000" font-family="sans-serif" font-size="13" lengthAdjust="spacing" textLength="269.1978" x="1193.0139" y="1632.9668">Xo&#225; th&#7853;t (SaleStatus=DELETED) ch&#7881; th&#7921;c hi&#7879;n</text><text fill="#000000" font-family="sans-serif" font-size="13" lengthAdjust="spacing" textLength="300.5996" x="1193.0139" y="1649.3184">sau DeleteNotBefore, qua confirmShowtimeDeletion</text><text fill="#000000" font-family="sans-serif" font-size="13" lengthAdjust="spacing" textLength="171.9897" x="1193.0139" y="1665.6699">&#8212; h&#224;ng r&#224;o xo&#225; 2 pha (fix35).</text><rect fill="#FFFFFF" height="50.1875" rx="12.5" ry="12.5" style="stroke:#000000;stroke-width:0.5;" width="192.7461" x="974.2678" y="1618.9053"/><text fill="#000000" font-family="sans-serif" font-size="12" lengthAdjust="spacing" textLength="154.8105" x="984.2678" y="1641.3623">g&#7917;i th&#244;ng b&#225;o hu&#7927; su&#7845;t chi&#7871;u</text><text fill="#000000" font-family="sans-serif" font-size="12" lengthAdjust="spacing" textLength="172.7461" x="984.2678" y="1656.4561">cho kh&#225;ch &#273;&#227; &#273;&#7863;t (EmailService)</text><ellipse cx="1070.6409" cy="1748.5264" fill="none" rx="11" ry="11" style="stroke:#222222;stroke-width:1;"/><ellipse cx="1070.6409" cy="1748.5264" fill="#222222" rx="6" ry="6" style="stroke:#222222;stroke-width:1;"/><line style="stroke:#000000;stroke-width:1.5;" x1="952.8489" x2="952.8489" y1="56.0645" y2="1759.5264"/><line style="stroke:#000000;stroke-width:1.5;" x1="1513.6135" x2="1513.6135" y1="56.0645" y2="1759.5264"/><line style="stroke:#181818;stroke-width:1;" x1="160.792" x2="160.792" y1="103.7051" y2="123.7051"/><polygon fill="#181818" points="156.792,113.7051,160.792,123.7051,164.792,113.7051,160.792,117.7051" style="stroke:#181818;stroke-width:1;stroke-linejoin:miter;stroke-miterlimit:10;"/><line style="stroke:#181818;stroke-width:1;" x1="160.792" x2="160.792" y1="158.7988" y2="178.7988"/><polygon fill="#181818" points="156.792,168.7988,160.792,178.7988,164.792,168.7988,160.792,172.7988" style="stroke:#181818;stroke-width:1;stroke-linejoin:miter;stroke-miterlimit:10;"/><line style="stroke:#181818;stroke-width:1;" x1="160.792" x2="160.792" y1="213.8926" y2="233.8926"/><polygon fill="#181818" points="156.792,223.8926,160.792,233.8926,164.792,223.8926,160.792,227.8926" style="stroke:#181818;stroke-width:1;stroke-linejoin:miter;stroke-miterlimit:10;"/><line style="stroke:#181818;stroke-width:1;" x1="160.792" x2="160.792" y1="284.0801" y2="304.0801"/><polygon fill="#181818" points="156.792,294.0801,160.792,304.0801,164.792,294.0801,160.792,298.0801" style="stroke:#181818;stroke-width:1;stroke-linejoin:miter;stroke-miterlimit:10;"/><line style="stroke:#181818;stroke-width:1;" x1="160.792" x2="160.792" y1="1326.3506" y2="1351.2686"/><polygon fill="#181818" points="156.792,1341.2686,160.792,1351.2686,164.792,1341.2686,160.792,1345.2686" style="stroke:#181818;stroke-width:1;stroke-linejoin:miter;stroke-miterlimit:10;"/><line style="stroke:#181818;stroke-width:1;" x1="73.3281" x2="39" y1="1314.3506" y2="1314.3506"/><polygon fill="#181818" points="35,1503.624,39,1513.624,43,1503.624,39,1507.624" style="stroke:#181818;stroke-width:1;stroke-linejoin:miter;stroke-miterlimit:10;"/><line style="stroke:#181818;stroke-width:1;" x1="39" x2="39" y1="1314.3506" y2="1705.5264"/><line style="stroke:#181818;stroke-width:1;" x1="39" x2="148.792" y1="1705.5264" y2="1705.5264"/><polygon fill="#181818" points="138.792,1701.5264,148.792,1705.5264,138.792,1709.5264,142.792,1705.5264" style="stroke:#181818;stroke-width:1;stroke-linejoin:miter;stroke-miterlimit:10;"/><line style="stroke:#181818;stroke-width:1;" x1="160.792" x2="160.792" y1="1282.3506" y2="1302.3506"/><polygon fill="#181818" points="156.792,1292.3506,160.792,1302.3506,164.792,1292.3506,160.792,1296.3506" style="stroke:#181818;stroke-width:1;stroke-linejoin:miter;stroke-miterlimit:10;"/><line style="stroke:#181818;stroke-width:1;" x1="410.1758" x2="410.1758" y1="498.2793" y2="526.2324"/><polygon fill="#181818" points="406.1758,516.2324,410.1758,526.2324,414.1758,516.2324,410.1758,520.2324" style="stroke:#181818;stroke-width:1;stroke-linejoin:miter;stroke-miterlimit:10;"/><line style="stroke:#181818;stroke-width:1;" x1="410.1758" x2="410.1758" y1="438.2676" y2="463.1855"/><polygon fill="#181818" points="406.1758,453.1855,410.1758,463.1855,414.1758,453.1855,410.1758,457.1855" style="stroke:#181818;stroke-width:1;stroke-linejoin:miter;stroke-miterlimit:10;"/><line style="stroke:#181818;stroke-width:1;" x1="451.467" x2="463.467" y1="426.2676" y2="426.2676"/><polygon fill="#181818" points="459.467,496.2324,463.467,506.2324,467.467,496.2324,463.467,500.2324" style="stroke:#181818;stroke-width:1;stroke-linejoin:miter;stroke-miterlimit:10;"/><line style="stroke:#181818;stroke-width:1;" x1="463.467" x2="463.467" y1="426.2676" y2="570.2324"/><line style="stroke:#181818;stroke-width:1;" x1="463.467" x2="410.1758" y1="570.2324" y2="570.2324"/><line style="stroke:#181818;stroke-width:1;" x1="410.1758" x2="410.1758" y1="570.2324" y2="590.2324"/><polygon fill="#181818" points="406.1758,580.2324,410.1758,590.2324,414.1758,580.2324,410.1758,584.2324" style="stroke:#181818;stroke-width:1;stroke-linejoin:miter;stroke-miterlimit:10;"/><line style="stroke:#181818;stroke-width:1;" x1="410.1758" x2="410.1758" y1="394.2676" y2="414.2676"/><polygon fill="#181818" points="406.1758,404.2676,410.1758,414.2676,414.1758,404.2676,410.1758,408.2676" style="stroke:#181818;stroke-width:1;stroke-linejoin:miter;stroke-miterlimit:10;"/><line style="stroke:#181818;stroke-width:1;" x1="410.1758" x2="410.1758" y1="625.3262" y2="645.3262"/><polygon fill="#181818" points="406.1758,635.3262,410.1758,645.3262,414.1758,635.3262,410.1758,639.3262" style="stroke:#181818;stroke-width:1;stroke-linejoin:miter;stroke-miterlimit:10;"/><line style="stroke:#181818;stroke-width:1;" x1="410.1758" x2="410.1758" y1="743.1855" y2="768.1035"/><polygon fill="#181818" points="406.1758,758.1035,410.1758,768.1035,414.1758,758.1035,410.1758,762.1035" style="stroke:#181818;stroke-width:1;stroke-linejoin:miter;stroke-miterlimit:10;"/><line style="stroke:#181818;stroke-width:1;" x1="489.1345" x2="754.5222" y1="729.3496" y2="729.3496"/><polygon fill="#181818" points="750.5222,837.7793,754.5222,847.7793,758.5222,837.7793,754.5222,841.7793" style="stroke:#181818;stroke-width:1;stroke-linejoin:miter;stroke-miterlimit:10;"/><line style="stroke:#181818;stroke-width:1;" x1="754.5222" x2="754.5222" y1="729.3496" y2="942.291"/><polygon fill="#181818" points="750.5222,932.291,754.5222,942.291,758.5222,932.291,754.5222,936.291" style="stroke:#181818;stroke-width:1;stroke-linejoin:miter;stroke-miterlimit:10;"/><line style="stroke:#181818;stroke-width:1;" x1="410.1758" x2="410.1758" y1="695.5137" y2="715.5137"/><polygon fill="#181818" points="406.1758,705.5137,410.1758,715.5137,414.1758,705.5137,410.1758,709.5137" style="stroke:#181818;stroke-width:1;stroke-linejoin:miter;stroke-miterlimit:10;"/><line style="stroke:#181818;stroke-width:1;" x1="754.5222" x2="754.5222" y1="858.291" y2="878.291"/><polygon fill="#181818" points="750.5222,868.291,754.5222,878.291,758.5222,868.291,754.5222,872.291" style="stroke:#181818;stroke-width:1;stroke-linejoin:miter;stroke-miterlimit:10;"/><line style="stroke:#181818;stroke-width:1;" x1="682.1162" x2="663.3938" y1="1011.2207" y2="1011.2207"/><line style="stroke:#181818;stroke-width:1;" x1="663.3938" x2="663.3938" y1="1011.2207" y2="1035.0566"/><polygon fill="#181818" points="659.3938,1025.0566,663.3938,1035.0566,667.3938,1025.0566,663.3938,1029.0566" style="stroke:#181818;stroke-width:1;stroke-linejoin:miter;stroke-miterlimit:10;"/><line style="stroke:#181818;stroke-width:1;" x1="826.9282" x2="845.6506" y1="1011.2207" y2="1011.2207"/><line style="stroke:#181818;stroke-width:1;" x1="845.6506" x2="845.6506" y1="1011.2207" y2="1035.0566"/><polygon fill="#181818" points="841.6506,1025.0566,845.6506,1035.0566,849.6506,1025.0566,845.6506,1029.0566" style="stroke:#181818;stroke-width:1;stroke-linejoin:miter;stroke-miterlimit:10;"/><line style="stroke:#181818;stroke-width:1;" x1="663.3938" x2="663.3938" y1="1070.1504" y2="1103.2441"/><line style="stroke:#181818;stroke-width:1;" x1="663.3938" x2="742.5222" y1="1103.2441" y2="1103.2441"/><polygon fill="#181818" points="732.5222,1099.2441,742.5222,1103.2441,732.5222,1107.2441,736.5222,1103.2441" style="stroke:#181818;stroke-width:1;stroke-linejoin:miter;stroke-miterlimit:10;"/><line style="stroke:#181818;stroke-width:1;" x1="845.6506" x2="845.6506" y1="1085.2441" y2="1103.2441"/><line style="stroke:#181818;stroke-width:1;" x1="845.6506" x2="766.5222" y1="1103.2441" y2="1103.2441"/><polygon fill="#181818" points="776.5222,1099.2441,766.5222,1103.2441,776.5222,1107.2441,772.5222,1103.2441" style="stroke:#181818;stroke-width:1;stroke-linejoin:miter;stroke-miterlimit:10;"/><line style="stroke:#181818;stroke-width:1;" x1="754.5222" x2="754.5222" y1="977.3848" y2="997.3848"/><polygon fill="#181818" points="750.5222,987.3848,754.5222,997.3848,758.5222,987.3848,754.5222,991.3848" style="stroke:#181818;stroke-width:1;stroke-linejoin:miter;stroke-miterlimit:10;"/><line style="stroke:#181818;stroke-width:1;" x1="817.9102" x2="933.8489" y1="1147.2441" y2="1147.2441"/><polygon fill="#181818" points="929.8489,1063.541,933.8489,1053.541,937.8489,1063.541,933.8489,1059.541" style="stroke:#181818;stroke-width:1;stroke-linejoin:miter;stroke-miterlimit:10;"/><line style="stroke:#181818;stroke-width:1;" x1="933.8489" x2="933.8489" y1="959.8379" y2="1147.2441"/><line style="stroke:#181818;stroke-width:1;" x1="933.8489" x2="828.8201" y1="959.8379" y2="959.8379"/><polygon fill="#181818" points="838.8201,955.8379,828.8201,959.8379,838.8201,963.8379,834.8201,959.8379" style="stroke:#181818;stroke-width:1;stroke-linejoin:miter;stroke-miterlimit:10;"/><line style="stroke:#181818;stroke-width:1;" x1="754.5222" x2="754.5222" y1="1115.2441" y2="1135.2441"/><polygon fill="#181818" points="750.5222,1125.2441,754.5222,1135.2441,758.5222,1125.2441,754.5222,1129.2441" style="stroke:#181818;stroke-width:1;stroke-linejoin:miter;stroke-miterlimit:10;"/><line style="stroke:#181818;stroke-width:1;" x1="754.5222" x2="754.5222" y1="1159.2441" y2="1192.1631"/><polygon fill="#181818" points="750.5222,1182.1631,754.5222,1192.1631,758.5222,1182.1631,754.5222,1186.1631" style="stroke:#181818;stroke-width:1;stroke-linejoin:miter;stroke-miterlimit:10;"/><line style="stroke:#181818;stroke-width:1;" x1="1070.6409" x2="1070.6409" y1="1598.9053" y2="1618.9053"/><polygon fill="#181818" points="1066.6409,1608.9053,1070.6409,1618.9053,1074.6409,1608.9053,1070.6409,1612.9053" style="stroke:#181818;stroke-width:1;stroke-linejoin:miter;stroke-miterlimit:10;"/><line style="stroke:#181818;stroke-width:1;" x1="160.792" x2="160.792" y1="339.1738" y2="344.1738"/><line style="stroke:#181818;stroke-width:1;" x1="160.792" x2="410.1758" y1="344.1738" y2="344.1738"/><line style="stroke:#181818;stroke-width:1;" x1="410.1758" x2="410.1758" y1="344.1738" y2="359.1738"/><polygon fill="#181818" points="406.1758,349.1738,410.1758,359.1738,414.1758,349.1738,410.1758,353.1738" style="stroke:#181818;stroke-width:1;stroke-linejoin:miter;stroke-miterlimit:10;"/><line style="stroke:#181818;stroke-width:1;" x1="410.1758" x2="410.1758" y1="803.1973" y2="808.1973"/><line style="stroke:#181818;stroke-width:1;" x1="410.1758" x2="754.5222" y1="808.1973" y2="808.1973"/><line style="stroke:#181818;stroke-width:1;" x1="754.5222" x2="754.5222" y1="808.1973" y2="823.1973"/><polygon fill="#181818" points="750.5222,813.1973,754.5222,823.1973,758.5222,813.1973,754.5222,817.1973" style="stroke:#181818;stroke-width:1;stroke-linejoin:miter;stroke-miterlimit:10;"/><line style="stroke:#181818;stroke-width:1;" x1="754.5222" x2="754.5222" y1="1227.2568" y2="1232.2568"/><line style="stroke:#181818;stroke-width:1;" x1="754.5222" x2="160.792" y1="1232.2568" y2="1232.2568"/><line style="stroke:#181818;stroke-width:1;" x1="160.792" x2="160.792" y1="1232.2568" y2="1247.2568"/><polygon fill="#181818" points="156.792,1237.2568,160.792,1247.2568,164.792,1237.2568,160.792,1241.2568" style="stroke:#181818;stroke-width:1;stroke-linejoin:miter;stroke-miterlimit:10;"/><line style="stroke:#181818;stroke-width:1;" x1="160.792" x2="160.792" y1="1386.3623" y2="1391.3623"/><line style="stroke:#181818;stroke-width:1;" x1="160.792" x2="1070.6409" y1="1391.3623" y2="1391.3623"/><line style="stroke:#181818;stroke-width:1;" x1="1070.6409" x2="1070.6409" y1="1391.3623" y2="1406.3623"/><polygon fill="#181818" points="1066.6409,1396.3623,1070.6409,1406.3623,1074.6409,1396.3623,1070.6409,1400.3623" style="stroke:#181818;stroke-width:1;stroke-linejoin:miter;stroke-miterlimit:10;"/><line style="stroke:#181818;stroke-width:1;" x1="1070.6409" x2="1070.6409" y1="1456.5498" y2="1461.5498"/><line style="stroke:#181818;stroke-width:1;" x1="1070.6409" x2="160.792" y1="1461.5498" y2="1461.5498"/><line style="stroke:#181818;stroke-width:1;" x1="160.792" x2="160.792" y1="1461.5498" y2="1476.5498"/><polygon fill="#181818" points="156.792,1466.5498,160.792,1476.5498,164.792,1466.5498,160.792,1470.5498" style="stroke:#181818;stroke-width:1;stroke-linejoin:miter;stroke-miterlimit:10;"/><line style="stroke:#181818;stroke-width:1;" x1="160.792" x2="160.792" y1="1511.6436" y2="1518.624"/><line style="stroke:#181818;stroke-width:1;" x1="160.792" x2="1070.6409" y1="1518.624" y2="1518.624"/><line style="stroke:#181818;stroke-width:1;" x1="1070.6409" x2="1070.6409" y1="1518.624" y2="1533.624"/><polygon fill="#181818" points="1066.6409,1523.624,1070.6409,1533.624,1074.6409,1523.624,1070.6409,1527.624" style="stroke:#181818;stroke-width:1;stroke-linejoin:miter;stroke-miterlimit:10;"/><line style="stroke:#181818;stroke-width:1;" x1="1070.6409" x2="1070.6409" y1="1669.0928" y2="1678.8506"/><line style="stroke:#181818;stroke-width:1;" x1="1070.6409" x2="160.792" y1="1678.8506" y2="1678.8506"/><line style="stroke:#181818;stroke-width:1;" x1="160.792" x2="160.792" y1="1678.8506" y2="1693.5264"/><polygon fill="#181818" points="156.792,1683.5264,160.792,1693.5264,164.792,1683.5264,160.792,1687.5264" style="stroke:#181818;stroke-width:1;stroke-linejoin:miter;stroke-miterlimit:10;"/><line style="stroke:#181818;stroke-width:1;" x1="160.792" x2="160.792" y1="1717.5264" y2="1722.5264"/><line style="stroke:#181818;stroke-width:1;" x1="160.792" x2="1070.6409" y1="1722.5264" y2="1722.5264"/><line style="stroke:#181818;stroke-width:1;" x1="1070.6409" x2="1070.6409" y1="1722.5264" y2="1737.5264"/><polygon fill="#181818" points="1066.6409,1727.5264,1070.6409,1737.5264,1074.6409,1727.5264,1070.6409,1731.5264" style="stroke:#181818;stroke-width:1;stroke-linejoin:miter;stroke-miterlimit:10;"/><text fill="#000000" font-family="sans-serif" font-size="18" lengthAdjust="spacing" textLength="93.0498" x="102.5405" y="74.75">Qu&#7843;n l&#253; r&#7841;p</text><text fill="#000000" font-family="sans-serif" font-size="18" lengthAdjust="spacing" textLength="264.1289" x="291.6686" y="74.75">H&#7879; th&#7889;ng (ManagerPortalServlet)</text><text fill="#000000" font-family="sans-serif" font-size="18" lengthAdjust="spacing" textLength="127.0547" x="697.5647" y="74.75">Giao di&#7879;n (JSP)</text><text fill="#000000" font-family="sans-serif" font-size="18" lengthAdjust="spacing" textLength="201.085" x="1132.6887" y="74.75">H&#7879; th&#7889;ng (AdminService)</text><?plantuml-src ZLLHQnj747w_Np7uIG9XDNNxSYODYgKqRbt5zJcGK8Uokbjf5ztjAdjxiaqSQ0dK55DQbK8efTJ654CWDAqBfZfA7qxuVrn-IMVtTBOazw4lacvlvjlvllbcfBaEAJHypOTSxyFRBtw0JvDyV2eWpFw6JSQZ-bO-FXdKDrdsX-Y1ptW-_YUfUnZqgouVeV894QH7LGrwF4z_ui0mIO1cLC8Q5pGYwq7LYVjS38WY4KHII9yf6L7GAg4pRs960hdByQek2UFPDm7jaYJKzwJGROA97X6nHnNlpiGqb9AxsupxVK7Z66xDl28bnsSEm5sf0ghMP2WLT4BYzyqPVlMKJ4HGdEyohYcUDpd1SeERASyTvs16B6LqEd1YJPHstCbeyW9921JYzQ06m-nOGfq44HVrcCbTpICQhpgkp_Bq6m5BsvWi8PvNbMN7215AVAUNheC7s9KQViusf0Pzbk2ZaVzd2FFnnM17L7IUZZXCHWHMRat1guZJmHyHB6rSlaaGrZcudwU7s2iCHeIobPjIQHAYmCEGwkg1upOIpUxnK5FbWfBecWzkGrJ4tbbrU1SgzXHXJWTOGNfufseC8A3osSSi-nEX9wCyFOEdoNwUVYcUL55RzxrtLbRnEzPou53iDmPFlfkFeYB07hiDevqfX_jqEIP3wfKoLZf4-wncEYoLuUVvSa0VQXukapYcIXSEjASeYWsh8GKPBLzvio0mRtAiFidJ7ttmynJriltT4VXmHc0gqXp5axd8AtvsgB1rumi1wyq7MuRlmOUSI0YmMOUO_96tYG9ZzD9KA3yxBmN0-SXUYOLkWyYEzvTk2fUDJSnS3OLwZg83IZIuGpkTKPw-vANRj9AOPJKqY4Q7RPNzLPgftacwNQgWo2noTaI_e6l3YjgkfPXcemMEV6PbG6gTFFqMEH7S48mNun0GmI1676PYNt9p-vJAL0TjaKg8zRRNsjg6gxvZBpqIKayJdSIt7xG_zneRhQf5iQIdd76EqPOL7uky7h3BDmJsylIrcLoidCTuwHf6FAc2a1eVxgFE6czsN8rIdaBVF2C1y_lPP9ITWZOZwyAZ6Y2t8oW9kl3u-Uf_BGPtZqQWi_F8PFwcvn2dwbiJhkNZCm5xCZk1ScZ1NcXSCHbTubx5GHfVw6l5rxBpmcxJoNwSlKhG1-EpfC2PtolME0j3FpjTXHS7YWuvtItLRb9S0roA2W-gE-BjLzy3WgKlX8KuWXXnYkBgrXgi4CLem03LpjDVHC_UUrCOl6pFkCdkoYdpTz5Lv7_LgUZJXCPwiSvvStWFlSrMkzbgrdQ4ZQ1RHHeD6he6nL5RwhkqAnMr7d9xQ0-EDridTZ9SpsOTN2o8YGk1IPXojcqgcWELLaHuM9Pg4D5O51JlCMtz_CZmr8Op1i_KscnjjBPRpQhP6UdNblhllbNxKDZ4c2IB5TUCyy2NeijLj2Y5JJ9BgFW_KMRshaM6IfVlhRnVNIxcnbRfp8tXrHOno-PV?></g></svg>